:SAMPLES-PER-SECOND 30
:FULLY-SPECIFIED
:DEGREES
414
root  -53.2476 34.4867 30.4094 -172.861 38.6745 176.644
RightUpLeg  -10.9522 -11.8698 -1.3022
RightLeg  18.607 -7.43053 -1.97394
RightFoot  -6.82694 0.0333884 1.15206
RightToes  -16.0132 -0.0619412 -0.14402
Spine  -1.94683 0.482454 0.969423
Spine1  -3.56902 1.45526 2.42171
HEad  -53.3912 11.4509 10.1353
LeftShoulder1  -1.94126e-019 -3.10601e-018 -2.51263e-017
LeftArm  -29.5516 37.5095 -80.7787
LeftForeArm  31.2979 -5.31879 -0.923439
LeftHand  -0.398514 -0.510449 7.94489
RightShoulder  -4.96962e-017 0 -2.36833e-017
RightArm  -32.0676 -29.2436 73.647
RightForeArm  61.0479 12.0659 1.45922
RightHand  -0.402954 0.219268 -8.40233
LeftUpLeg  -13.3764 -7.14558 0.808525
LeftLeg  15.0421 9.5749 1.91196
LeftFoot  2.80036 -0.0137898 0.648535
LeftToes  -20.9444 1.48321e-006 1.01846e-007
415
root  -53.2102 34.5044 30.4878 -172.713 36.9313 176.712
RightUpLeg  -10.4176 -13.1617 -1.0266
RightLeg  17.6984 -7.85346 -1.95271
RightFoot  -6.63649 0.0335959 1.17311
RightToes  -15.9103 -0.0617145 -0.142764
Spine  -2.00703 0.353799 0.892413
Spine1  -3.73009 1.17317 2.29077
HEad  -52.064 8.77322 11.1124
LeftShoulder1  -1.94126e-019 -3.10601e-018 -2.51263e-017
LeftArm  -29.5217 36.6335 -80.3577
LeftForeArm  32.7173 -5.54186 -0.963807
LeftHand  -0.35872 -0.577255 7.0846
RightShoulder  -4.96962e-017 0 -2.36833e-017
RightArm  -32.3299 -28.9181 73.6959
RightForeArm  60.8744 12.1117 1.45566
RightHand  -0.38816 -0.0253489 -8.44124
LeftUpLeg  -13.3397 -8.08608 1.10301
LeftLeg  14.1101 8.9071 1.63028
LeftFoot  3.47833 -0.0192807 0.718083
LeftToes  -21.4822 1.48321e-006 1.01846e-007
416
root  -53.1647 34.5307 30.5782 -172.597 35.1791 176.858
RightUpLeg  -9.78085 -14.4392 -0.670243
RightLeg  16.6866 -8.30823 -1.90994
RightFoot  -6.37543 0.0324904 1.18093
RightToes  -15.5507 -0.0615231 -0.141324
Spine  -2.03987 0.159227 0.800819
Spine1  -3.8692 0.716848 2.139
HEad  -51.2443 5.17671 11.6577
LeftShoulder1  -1.94126e-019 -3.10601e-018 -2.51263e-017
LeftArm  -28.8848 35.4526 -80.2837
LeftForeArm  31.7117 -6.37817 -1.11062
LeftHand  -0.391258 -0.552465 7.7501
RightShoulder  -4.96962e-017 0 -2.36833e-017
RightArm  -31.6459 -28.4748 73.716
RightForeArm  60.5179 12.3594 1.43135
RightHand  -0.4068 0.116637 -8.63048
LeftUpLeg  -13.1553 -9.07666 1.48896
LeftLeg  13.001 8.28336 1.35249
LeftFoot  4.19492 -0.0242104 0.774272
LeftToes  -22.1685 1.48321e-006 1.01846e-007
417
root  -53.1182 34.5622 30.6653 -172.48 34.0579 176.989
RightUpLeg  -9.27736 -15.3233 -0.351264
RightLeg  15.7221 -8.51606 -1.80726
RightFoot  -6.04208 0.0289458 1.14751
RightToes  -15.4309 -0.0613619 -0.139809
Spine  -2.05835 0.136597 0.705856
Spine1  -3.9774 0.606512 1.97774
HEad  -50.1706 2.21538 12.2241
LeftShoulder1  -1.94126e-019 -3.10601e-018 -2.51263e-017
LeftArm  -28.32 34.118 -80.1208
LeftForeArm  32.6378 -7.74234 -1.35399
LeftHand  -0.349127 -1.1258 6.36143
RightShoulder  -4.96962e-017 0 -2.36833e-017
RightArm  -30.5475 -27.7446 73.6118
RightForeArm  59.8953 12.7176 1.39357
RightHand  -0.387207 0.0102777 -8.36841
LeftUpLeg  -12.7963 -9.56082 1.81847
LeftLeg  11.6941 7.693 1.07784
LeftFoot  5.00661 -0.0298508 0.833099
LeftToes  -23.2504 1.48321e-006 1.01846e-007
418
root  -53.0809 34.6047 30.7505 -172.445 33.248 177.037
RightUpLeg  -8.81479 -15.9938 -0.138629
RightLeg  14.7951 -8.62971 -1.68609
RightFoot  -5.71739 0.0250915 1.10245
RightToes  -15.1013 -0.0612254 -0.138332
Spine  -2.03904 0.107687 0.575778
Spine1  -4.01352 0.47988 1.73668
HEad  -50.5498 -2.59847 11.6854
LeftShoulder1  -1.94126e-019 -3.10601e-018 -2.51263e-017
LeftArm  -27.2333 32.574 -80.395
LeftForeArm  31.3394 -9.42686 -1.65364
LeftHand  -0.38337 -1.02535 7.07423
RightShoulder  -4.96962e-017 0 -2.36833e-017
RightArm  -29.2856 -26.5167 73.5383
RightForeArm  59.6078 12.9188 1.37053
RightHand  -0.363738 -0.239442 -8.21911
LeftUpLeg  -12.4035 -10.453 2.09792
LeftLeg  10.4419 7.8133 0.921739
LeftFoot  5.79925 -0.0396629 0.944582
LeftToes  -23.8564 1.48321e-006 1.01846e-007
419
root  -53.0435 34.6573 30.8408 -172.452 32.8514 177.173
RightUpLeg  -8.23891 -16.2348 0.122881
RightLeg  13.6809 -8.78676 -1.54024
RightFoot  -5.16297 0.0190001 1.02308
RightToes  -15.1824 -0.0611084 -0.137004
Spine  -1.98481 0.122026 0.490787
Spine1  -3.96986 0.443357 1.5771
HEad  -50.3859 -6.73521 11.2619
LeftShoulder1  -1.94126e-019 -3.10601e-018 -2.51263e-017
LeftArm  -26.5294 30.7152 -80.7668
LeftForeArm  31.7851 -10.8796 -1.88706
LeftHand  -0.378753 -1.29887 6.72653
RightShoulder  -4.96962e-017 0 -2.36833e-017
RightArm  -28.2975 -24.909 73.4054
RightForeArm  59.8288 12.9537 1.36461
RightHand  -0.371578 -0.222514 -8.37049
LeftUpLeg  -11.8379 -10.1679 2.32145
LeftLeg  9.15372 7.17369 0.684084
LeftFoot  6.50743 -0.0454119 0.960335
LeftToes  -24.249 1.48321e-006 1.01846e-007
420
root  -52.9969 34.7112 30.9229 -172.579 32.7184 177.288
RightUpLeg  -7.56752 -15.1992 0.352247
RightLeg  12.6379 -9.83246 -1.5384
RightFoot  -4.77581 0.0184633 1.05143
RightToes  -14.3605 -0.0610057 -0.135651
Spine  -1.91864 0.136603 0.395436
Spine1  -3.87961 0.432091 1.39155
HEad  -49.7935 -10.7764 10.4237
LeftShoulder1  -1.94126e-019 -3.10601e-018 -2.51263e-017
LeftArm  -24.3199 28.9285 -81.0477
LeftForeArm  31.3713 -12.5306 -2.08409
LeftHand  -0.358668 -1.55098 6.16527
RightShoulder  -4.96962e-017 0 -2.36833e-017
RightArm  -27.2628 -23.0054 73.3862
RightForeArm  59.9564 12.8895 1.37225
RightHand  -0.36409 -0.382635 -8.44796
LeftUpLeg  -11.1833 -10.0392 2.53527
LeftLeg  8.00933 6.89561 0.519415
LeftFoot  7.14903 -0.0525034 1.002
LeftToes  -24.704 1.48321e-006 1.01846e-007
421
root  -52.9997 34.7762 30.9987 -172.681 32.9632 177.357
RightUpLeg  -7.01939 -16.1081 0.435005
RightLeg  11.4322 -8.84139 -1.19541
RightFoot  -4.09585 0.00869902 0.847731
RightToes  -14.408 -0.060912 -0.134158
Spine  -1.87778 0.176525 0.311707
Spine1  -3.81667 0.495107 1.22101
HEad  -49.3102 -14.198 9.14803
LeftShoulder1  -1.94126e-019 -3.10601e-018 -2.51263e-017
LeftArm  -22.0454 27.0351 -81.7574
LeftForeArm  29.7549 -14.4282 -2.3262
LeftHand  -0.406935 -1.42385 7.09432
RightShoulder  -4.96962e-017 0 -2.36833e-017
RightArm  -25.9095 -20.9279 73.3626
RightForeArm  59.8375 12.9418 1.36639
RightHand  -0.3526 -0.488659 -8.34681
LeftUpLeg  -10.6028 -10.0928 2.64005
LeftLeg  6.97882 7.17425 0.411223
LeftFoot  7.75427 -0.0644636 1.11269
LeftToes  -24.7121 1.48321e-006 1.01846e-007
422
root  -52.9943 34.82 31.0675 -172.842 33.394 177.468
RightUpLeg  -6.51617 -15.619 0.542873
RightLeg  10.569 -8.91021 -1.06869
RightFoot  -3.60743 0.00535563 0.777228
RightToes  -14.382 -0.0608221 -0.132727
Spine  -1.82952 0.182496 0.243101
Spine1  -3.72145 0.50558 1.10709
HEad  -49.0834 -16.9286 7.86403
LeftShoulder1  -1.94126e-019 -3.10601e-018 -2.51263e-017
LeftArm  -20.3547 25.5014 -82.3369
LeftForeArm  31.0566 -17.4311 -2.74215
LeftHand  -0.369189 -1.77036 6.16428
RightShoulder  -4.96962e-017 0 -2.36833e-017
RightArm  -24.3464 -18.9118 73.4707
RightForeArm  59.4223 13.2997 1.32094
RightHand  -0.357989 -0.419672 -8.3642
LeftUpLeg  -10.1083 -9.87281 2.75049
LeftLeg  6.38103 7.34785 0.344568
LeftFoot  8.11895 -0.0728848 1.18933
LeftToes  -24.8883 1.48321e-006 1.01846e-007
423
root  -52.9713 34.8553 31.1236 -172.942 34.0366 177.607
RightUpLeg  -6.00225 -14.1086 0.705025
RightLeg  9.66196 -9.70791 -1.00846
RightFoot  -3.16545 0.00400562 0.759989
RightToes  -14.156 -0.0607306 -0.13156
Spine  -1.78614 0.132141 0.162027
Spine1  -3.62589 0.388567 0.989825
HEad  -49.0647 -18.875 7.0033
LeftShoulder1  -1.94126e-019 -3.10601e-018 -2.51263e-017
LeftArm  -17.2959 24.2043 -82.5156
LeftForeArm  31.7053 -20.3984 -3.10457
LeftHand  -0.363711 -2.31723 5.68397
RightShoulder  -4.96962e-017 0 -2.36833e-017
RightArm  -22.391 -17.037 73.8239
RightForeArm  58.2272 14.0701 1.221
RightHand  -0.35991 -0.324999 -8.26139
LeftUpLeg  -9.62416 -9.34212 2.88141
LeftLeg  5.8641 7.41521 0.280956
LeftFoot  8.33636 -0.0781473 1.23382
LeftToes  -24.9412 1.48321e-006 1.01846e-007
424
root  -52.993 34.9009 31.1746 -172.936 34.9383 177.734
RightUpLeg  -5.6476 -14.7112 0.761395
RightLeg  8.60543 -8.32567 -0.711669
RightFoot  -2.49051 -0.000780997 0.576315
RightToes  -14.2948 -0.0606323 -0.130859
Spine  -1.81025 0.0511475 0.110582
Spine1  -3.65955 0.19539 0.936772
HEad  -49.0678 -20.0901 6.33626
LeftShoulder1  -1.94126e-019 -3.10601e-018 -2.51263e-017
LeftArm  -15.1103 23.287 -82.8067
LeftForeArm  32.6501 -23.2467 -3.42317
LeftHand  -0.379371 -2.65706 5.69406
RightShoulder  -4.96962e-017 0 -2.36833e-017
RightArm  -19.9563 -15.7739 74.2105
RightForeArm  56.2869 16.1085 1.18911
RightHand  -0.354467 -0.256964 -8.03508
LeftUpLeg  -9.21226 -8.99006 2.95439
LeftLeg  5.28629 7.93905 0.220927
LeftFoot  8.65435 -0.0877652 1.35999
LeftToes  -24.8827 1.48321e-006 1.01846e-007
